<?xml version="1.0" standalone="no"?>
<!DOCTYPE svg PUBLIC "-//W3C//DTD SVG 20010904//EN"
 "http://www.w3.org/TR/2001/REC-SVG-20010904/DTD/svg10.dtd">
<svg version="1.0" xmlns="http://www.w3.org/2000/svg"
 width="500.000000pt" height="500.000000pt" viewBox="0 0 500.000000 500.000000"
 preserveAspectRatio="xMidYMid meet">
<metadata>
Created by potrace 1.14, written by Peter Selinger 2001-2017
</metadata>
<g transform="translate(0.000000,500.000000) scale(0.100000,-0.100000)"
fill="#000000" stroke="none">
<path d="M3369 4281 c-32 -21 -44 -33 -56 -56 -11 -21 -10 -116 2 -134 13 -22
17 -60 20 -196 2 -77 -1 -144 -5 -150 -5 -5 -8 -12 -7 -15 2 -11 -20 -37 -48
-57 -31 -21 -30 -21 -195 -9 -49 3 -110 -13 -145 -39 -16 -12 -67 -41 -113
-65 -151 -78 -284 -226 -365 -407 -20 -45 -37 -87 -37 -92 0 -6 -7 -25 -15
-43 -8 -18 -39 -100 -69 -183 -141 -387 -263 -633 -391 -791 -123 -152 -320
-330 -510 -463 -97 -67 -173 -133 -213 -184 -19 -25 -26 -106 -13 -153 6 -22
24 -52 40 -67 34 -30 103 -67 126 -67 8 0 15 -5 15 -11 0 -5 4 -8 9 -5 5 4 39
0 76 -8 67 -14 370 -16 392 -3 5 3 32 9 59 13 27 3 52 8 55 10 3 2 19 5 35 8
43 8 167 49 259 86 85 34 331 154 354 173 18 16 53 35 74 43 9 3 17 10 17 15
0 5 7 9 15 9 8 0 24 9 35 20 11 11 22 20 25 20 9 0 120 83 123 92 2 4 10 8 17
8 7 0 15 3 17 8 2 4 26 25 53 47 75 60 210 191 284 276 295 338 492 746 507
1054 2 44 4 82 5 85 2 6 2 2 -6 66 -4 27 -14 76 -22 109 -8 33 -18 78 -22 100
-10 57 -24 77 -83 126 -29 23 -72 62 -95 86 -51 52 -52 61 -22 230 29 165 31
391 3 448 -36 75 -123 106 -185 66z"/>
</g>
</svg>
